<?xml version="1.0" encoding="UTF-8" standalone="no"?>
<!-- Created with Inkscape (http://www.inkscape.org/) -->

<svg
   xmlns:dc="http://purl.org/dc/elements/1.1/"
   xmlns:cc="http://creativecommons.org/ns#"
   xmlns:rdf="http://www.w3.org/1999/02/22-rdf-syntax-ns#"
   xmlns:svg="http://www.w3.org/2000/svg"
   xmlns="http://www.w3.org/2000/svg"
   xmlns:sodipodi="http://sodipodi.sourceforge.net/DTD/sodipodi-0.dtd"
   xmlns:inkscape="http://www.inkscape.org/namespaces/inkscape"
   id="svg2"
   version="1.1"
   inkscape:version="0.48.4 r9939"
   width="32"
   height="32"
   sodipodi:docname="green2.svg"
   inkscape:export-filename="/home/ricky/dev/hqx-1.1/green3.png"
   inkscape:export-xdpi="1430.79"
   inkscape:export-ydpi="1430.79">
  <metadata
     id="metadata8">
    <rdf:RDF>
      <cc:Work
         rdf:about="">
        <dc:format>image/svg+xml</dc:format>
        <dc:type
           rdf:resource="http://purl.org/dc/dcmitype/StillImage" />
        <dc:title />
      </cc:Work>
    </rdf:RDF>
  </metadata>
  <defs
     id="defs6">
    <clipPath
       clipPathUnits="userSpaceOnUse"
       id="clipPath4435">
      <rect
         style="fill:#000000;fill-opacity:1"
         id="rect4437"
         width="31.78385"
         height="22.435659"
         x="0.14381832"
         y="-0.21530518" />
    </clipPath>
  </defs>
  <sodipodi:namedview
     pagecolor="#ffffff"
     bordercolor="#666666"
     borderopacity="1"
     objecttolerance="10"
     gridtolerance="10"
     guidetolerance="10"
     inkscape:pageopacity="0"
     inkscape:pageshadow="2"
     inkscape:window-width="1366"
     inkscape:window-height="709"
     id="namedview4"
     showgrid="false"
     inkscape:zoom="7.375"
     inkscape:cx="17.268654"
     inkscape:cy="19.907659"
     inkscape:window-x="0"
     inkscape:window-y="27"
     inkscape:window-maximized="1"
     inkscape:current-layer="svg2" />
  <path
     style="fill:#ffffff;fill-opacity:1"
     d="M 1.9664925,22.088537 C 1.6194135,21.868238 1.4856032,20.966571 1.4856032,18.8481 c 0,-5.298919 1.4961506,-9.1322539 4.9071131,-12.5726702 2.1776708,-2.1964744 4.8519157,-3.8590358 7.0353897,-4.3738574 1.339579,-0.3158469 3.650153,-0.2817711 5.095364,0.075146 1.459495,0.3604435 3.832464,1.5206835 5.144341,2.5152758 3.33885,2.5313281 5.776907,6.5714008 6.608208,10.9503788 0.303728,1.599928 0.310293,5.536802 0.01043,6.254478 -0.253752,0.607314 -0.38035,0.622679 -1.793694,0.217699 -2.114734,-0.605958 -5.128898,-0.800471 -12.424522,-0.801791 -7.3397656,-0.0013 -10.6357078,0.208932 -12.5165043,0.798468 -1.0442429,0.327319 -1.303252,0.35629 -1.5852356,0.17731 l -1.1e-6,0 z"
     id="path4543"
     inkscape:connector-curvature="0" />
  <path
     inkscape:connector-curvature="0"
     id="path2993"
     d="M 4.5383699,28.439616 C 3.6091378,26.481404 2.2078641,24.633259 1.4244285,24.332627 0.51306184,17.597458 1.0550211,13.292915 2.8135593,8.8226844 4.0338983,7.0725569 7.3056027,4.0134566 8.6129611,2.7190916 9.0801321,2.2565637 10.430514,1.7254403 10.949153,1.5423729 11.572366,1.3223934 14.415266,0.24969417 16.095879,0.52733387 18.997757,1.0067283 20.7947,1.3223934 21.322034,1.5423729 c 0.507604,0.2117493 1.393148,0.401597 1.921186,0.7932032 1.163541,0.86291 5.943221,4.872574 5.943221,6.4871083 0,0.7220998 0.04322,1.9908746 0.59322,1.9908746 1.666758,0 2.481827,12.872121 0.795911,13.519068 -0.783436,0.300632 -2.18471,2.148777 -3.113942,4.106989 L 25.772117,32 16,32 6.2278829,32 z M 24.428571,28.428571 C 25.292857,27.564286 26,26.471429 26,26 c 0,-1.367594 -2.330498,-4.542373 -3.893463,-4.542373 -3.273505,-1.638861 -1.711798,0.05335 -5.970944,-0.542373 -8.4209449,0.105754 -2.357243,2.512662 -6.106537,0.40678 C 8.4660911,21.322034 6,24.632406 6,26 c 0,2.628046 3.4298852,4 10,4 4.900433,0 7.305556,-0.448413 8.428571,-1.571429 z M 20.8,18.8 c 1.546918,-1.546918 1.546918,-6.053082 0,-7.6 -1.552466,-1.5524662 -8.047534,-1.5524662 -9.6,0 -1.5469181,1.546918 -1.5469181,6.053082 0,7.6 1.552466,1.552466 8.047534,1.552466 9.6,0 z m -14,-2 C 8.9192372,14.680763 8.0035928,8 5.5938996,8 4.3460607,8 2,13.431862 2,16.320998 2,18.269677 5.0281383,18.571862 6.8,16.8 z M 30,16.320998 C 30,13.431862 27.653939,8 26.4061,8 23.996407,8 23.080763,14.680763 25.2,16.8 26.971862,18.571862 30,18.269677 30,16.320998 z M 12.8,6.8 C 14.413149,5.1868506 14.085282,1.5156779 12.462363,2.2722051 11.774863,2.5926847 10.7125,3.2764871 9.75,3.6159881 7.4109628,4.4410328 7.4515531,8 9.8,8 c 0.99,0 2.34,-0.54 3,-1.2 z M 24,6.1166314 C 24,5.0807786 23.2125,3.9554892 22.25,3.6159881 21.2875,3.2764871 20.005297,2.6687064 19.25,2.4160234 17.55192,1.8479342 17.586851,5.1868506 19.2,6.8 21.076356,8.6763557 24,8.260121 24,6.1166314 z"
     style="fill:#00a330"
     sodipodi:nodetypes="sccssssssssscccssscccssssssssssssssssssssssssss"
     clip-path="url(#clipPath4435)"
     inkscape:export-xdpi="1430.79"
     inkscape:export-ydpi="1430.79" />
  <path
     style="fill:#ffffff;fill-opacity:1"
     d="M 12.478388,30.233677 C 7.6783873,29.769924 5.0284042,28.300672 5.0284042,26.103116 c 0,-1.077414 1.2627376,-2.788378 2.5380798,-3.439009 0.6555037,-0.334414 3.233723,-0.714986 3.829951,-0.565343 4.30416,1.251199 -1.284706,-0.740908 2.160604,-0.06704 -0.823088,-0.07975 1.194583,-0.146086 2.374487,-0.147414 4.399914,-0.584391 1.297192,-0.380451 6.472398,0.175824 2.002278,0.224014 3.376023,1.144778 4.256715,2.853103 0.418579,0.811938 0.378286,1.362465 -0.162076,2.214526 -1.392779,2.196188 -2.807389,2.837925 -6.873755,3.118281 -2.535756,0.174828 -5.257613,0.170116 -7.14642,-0.01237 z"
     id="path4545"
     inkscape:connector-curvature="0"
     sodipodi:nodetypes="cssccccssscc" />
  <path
     inkscape:connector-curvature="0"
     id="path2991"
     d="M 4.5383699,28.439616 C 3.6091378,26.481404 2.3434573,25.311225 1.4244285,24.332627 -0.59887439,22.772797 0.62671763,11.394267 3.0614816,7.8173673 4.649894,4.2887795 8.0579755,2.0784569 10.095879,0.95206053 10.32594,0.77179544 12.666667,0 16,0 c 3.333333,0 3.559322,0.173258 6,1.1355932 2.884469,1.2855321 6.520019,4.4051239 7.864407,7.551498 1.437413,2.3561008 3.275848,13.9045178 0.711165,15.6455358 -0.783436,0.300632 -2.18471,2.148777 -3.113942,4.106989 L 25.772117,32 16,32 6.2278829,32 z M 24.428571,28.428571 C 25.292857,27.564286 26,26.471429 26,26 c 0,-1.367594 -2.059311,-3.59322 -3.622276,-3.59322 -0.785714,0 -2.784503,-0.591526 -2.784503,0.508474 C 19.593221,24.015254 19.55,26 19,26 c -0.55,0 -0.59322,-1.713559 -0.59322,-2.813559 0,-1.333333 -1.073447,-0.946744 -2.40678,-0.946744 -1.333333,0 -2.542373,-0.522182 -2.542373,0.811151 C 13.457627,24.150848 13.55,26 13,26 c -0.55,0 -0.664423,-1.984746 -0.664423,-3.084746 0,-1.1 -2.06318,-0.372881 -2.8488938,-0.372881 C 7.9237182,22.542373 6,24.632406 6,26 c 0,2.628046 3.4298852,4 10,4 4.900433,0 7.305556,-0.448413 8.428571,-1.571429 z M 16,20.60061 c 5.225,0 10.5125,0.367347 11.75,0.816326 C 29.848473,22.178287 30,21.959196 30,18.163684 30,6.9905718 19.071067,-1.4948736 10.791737,3.25 5.0276071,6.5534162 2,11.689236 2,18.163684 2,21.959196 2.151527,22.178287 4.25,21.416936 5.4875,20.967957 10.775,20.60061 16,20.60061 z"
     style="fill:#000000;fill-opacity:1"
     sodipodi:nodetypes="scccscccscccssssssssssssssssssssss" />
  <path
     inkscape:connector-curvature="0"
     id="path2991-4"
     d="M 40.006932,25.057014 C 39.121768,23.191667 37.916111,22.076982 37.040665,21.144793 35.113314,19.658935 36.280784,8.8200139 38.600084,5.4127429 c 1.513085,-3.3612503 4.759543,-5.46675182 6.700802,-6.5397307 0.219151,-0.1717162 2.448872,-0.9069105 5.624127,-0.9069105 3.175255,0 3.390527,0.1650415 5.715459,1.08173948 2.747678,1.2245678 6.210818,4.19621772 7.49145,7.19337972 1.369246,2.244367 3.120496,13.2451191 0.677439,14.9035721 -0.746282,0.286375 -2.081103,2.046874 -2.966268,3.912221 l -1.60939,3.391539 -9.30869,0 -9.30869,0 z m 18.94694,-0.01052 c 0.823299,-0.823303 1.496907,-1.864333 1.496907,-2.313405 0,-1.302738 -1.961652,-3.422817 -3.450496,-3.422817 -0.748452,0 -2.652452,-0.563474 -2.652452,0.48436 0,1.047835 -0.04117,2.938457 -0.565088,2.938457 -0.523918,0 -0.565088,-1.632296 -0.565088,-2.68013 0,-1.270102 -1.02254,-0.901846 -2.292642,-0.901846 -1.270102,0 -2.421805,-0.497419 -2.421805,0.772683 0,1.047834 0.08799,2.809293 -0.435925,2.809293 -0.523917,0 -0.632914,-1.890622 -0.632914,-2.938457 0,-1.047834 -1.965336,-0.355197 -2.713788,-0.355197 -1.488844,0 -3.321333,1.990916 -3.321333,3.293654 0,2.503415 3.267228,3.810307 9.525765,3.810307 4.668038,0 6.959101,-0.427148 8.028859,-1.496907 z m -8.028859,-7.456737 c 4.977213,0 10.013961,0.349926 11.192775,0.777613 1.998956,0.725245 2.143297,0.516544 2.143297,-3.098972 0,-10.6432451 -10.410646,-18.7262819 -18.297342,-14.2064264 -5.490774,3.1467573 -8.374801,8.0390193 -8.374801,14.2064264 0,3.615516 0.144341,3.824217 2.143297,3.098972 1.178813,-0.427687 6.215561,-0.777613 11.192774,-0.777613 z"
     style="fill:#ff0000;fill-opacity:1"
     sodipodi:nodetypes="scccscccscccssssssssssssssssssssss" />
</svg>
