<?xml version="1.0" encoding="UTF-8" standalone="no"?>
<!-- Created with Inkscape (http://www.inkscape.org/) -->

<svg
   xmlns:dc="http://purl.org/dc/elements/1.1/"
   xmlns:cc="http://creativecommons.org/ns#"
   xmlns:rdf="http://www.w3.org/1999/02/22-rdf-syntax-ns#"
   xmlns:svg="http://www.w3.org/2000/svg"
   xmlns="http://www.w3.org/2000/svg"
   xmlns:sodipodi="http://sodipodi.sourceforge.net/DTD/sodipodi-0.dtd"
   xmlns:inkscape="http://www.inkscape.org/namespaces/inkscape"
   id="svg3975"
   version="1.1"
   inkscape:version="0.48.4 r9939"
   width="72"
   height="72"
   sodipodi:docname="mush2.svg"
   inkscape:export-filename="/home/ricky/dev/hqx-1.1/mush6.png"
   inkscape:export-xdpi="703.12"
   inkscape:export-ydpi="703.12">
  <metadata
     id="metadata3981">
    <rdf:RDF>
      <cc:Work
         rdf:about="">
        <dc:format>image/svg+xml</dc:format>
        <dc:type
           rdf:resource="http://purl.org/dc/dcmitype/StillImage" />
        <dc:title></dc:title>
      </cc:Work>
    </rdf:RDF>
  </metadata>
  <defs
     id="defs3979" />
  <sodipodi:namedview
     pagecolor="#ffffff"
     bordercolor="#666666"
     borderopacity="1"
     objecttolerance="10"
     gridtolerance="10"
     guidetolerance="10"
     inkscape:pageopacity="0"
     inkscape:pageshadow="2"
     inkscape:window-width="1366"
     inkscape:window-height="709"
     id="namedview3977"
     showgrid="false"
     inkscape:zoom="9.28"
     inkscape:cx="16.49569"
     inkscape:cy="23.068966"
     inkscape:window-x="0"
     inkscape:window-y="27"
     inkscape:window-maximized="1"
     inkscape:current-layer="svg3975" />
  <rect
     style="fill:#ffffff;fill-opacity:1"
     id="rect3793"
     width="34.482758"
     height="12.931034"
     x="19.612068"
     y="51.310345"
     ry="0.96982759" />
  <path
     inkscape:connector-curvature="0"
     id="path3993"
     d="m 36.985635,67.178687 c -11.558222,0 -12.468812,0.311117 -15.538532,-1.757568 C 19.591355,64.170531 17.772478,61.745172 16.65939,60.031432 15.546301,58.317693 14.152673,55.018231 13.189556,53.445059 12.22644,51.871887 9.3986861,49.360784 8.0243025,47.491948 5.8284075,44.506051 5.736567,43.80588 5.736567,36.444505 c 0,-7.540531 2.0290073,-6.795859 3.398801,-13.037054 0.888432,-4.047965 4.269108,-8.815073 5.562267,-9.992854 1.293159,-1.177781 4.212201,-4.2912136 7.634017,-6.0009325 5.415974,-2.7061049 6.701447,-1.6067158 13.715318,-1.6067158 7.013871,0 7.360679,0.4024749 12.776653,3.1085798 3.421816,1.7097185 7.279523,4.4476855 8.572682,5.6254665 1.293159,1.177781 4.068392,4.229021 5.937733,7.927791 3.059391,6.053462 1.709204,6.998387 3.586534,13.600253 2.013481,7.080659 -0.467306,6.653474 -1.724536,10.20257 -0.774601,2.186658 -3.286884,5.905363 -4.25,7.478535 -0.963117,1.573172 -2.966914,3.652294 -4.080003,5.366033 -1.113088,1.71374 -4.762325,5.289057 -6.618073,6.539645 -3.06972,2.068685 -1.704103,1.522865 -13.262325,1.522865 z m -0.375466,-2.873602 11.631718,0 2.184141,-3.886155 c 1.201278,-2.137384 2.184141,-4.837384 2.184141,-6 0,-1.382755 -0.63377,-2.113845 -1.832458,-2.113845 -1.018237,0 -4.033202,1.284725 -5.376744,3.360906 -1.329838,2.055004 -1.891101,2.949335 -2.853411,3.134659 -1.434993,0.276354 -0.524286,0.529654 -1.183077,-2.745517 l -0.75431,-3.750048 -4,0 -4,0 -1.126398,3.885591 c -0.930164,3.208667 1.187208,2.510862 -0.24779,2.234508 -0.96231,-0.185324 -1.523573,-0.516456 -3.41661,-2.383727 -1.760602,-1.736639 -4.358507,-3.736372 -5.376744,-3.736372 -1.198688,0 -1.832458,0.73109 -1.832458,2.113845 0,1.162616 0.982863,3.862616 2.184141,6 l 2.184141,3.886155 z m -10.526751,-24 c 0.810286,0 3.907152,1.118484 6.375466,-0.134203 l 3.963552,-2.011532 c -0.335206,6.108373 2.320322,0.620616 3.400353,2.011532 1.697629,2.186288 6.503845,0.134203 7.314131,0.134203 0.910961,0 1.473249,-0.969368 1.473249,-2.539838 0,-1.396911 0.935713,-4.373988 2.079363,-6.615726 1.296311,-2.540979 1.851627,-4.983258 1.47462,-6.485373 -0.332608,-1.325217 -2.168322,-4.140181 -4.079363,-6.255475 -1.911041,-2.115294 -3.47462,-4.353949 -3.47462,-4.974789 0,-0.744332 -2.724785,-1.128799 -8,-1.128799 -5.275215,0 -8,0.384467 -8,1.128799 0,0.62084 -1.563579,2.859495 -3.47462,4.974789 -1.911041,2.115294 -3.746755,4.930258 -4.079363,6.255475 -0.377007,1.502115 0.178309,3.944394 1.47462,6.485373 1.14365,2.241738 2.079363,5.218815 2.079363,6.615726 0,1.57047 0.562288,2.539838 1.473249,2.539838 z"
     style="fill:#f4ad7d"
     sodipodi:nodetypes="sssssssssssssssssssccsssssscccssssssccsscssssssssssssss" />
  <rect
     style="fill:#90a8f8;fill-opacity:1"
     id="rect2985"
     width="40.241383"
     height="32.716568"
     x="16.463362"
     y="12.128259" />
  <path
     inkscape:connector-curvature="0"
     id="path3991"
     d="m 36.610169,68.305085 -13.044686,0 -4.561943,-4.205052 c -2.509068,-2.312779 -5.484575,-6.025279 -6.612236,-8.25 C 11.263643,53.625312 9.0515715,50.326927 7.47559,48.520289 4.8041534,45.457868 4.610169,44.660161 4.610169,36.737045 c 0,-7.152549 0.4123095,-9.324625 2.603458,-13.715204 1.4319019,-2.869216 4.244402,-6.943694 6.25,-9.054396 2.005598,-2.110702 6.221209,-5.148202 9.368025,-6.7500001 4.916302,-2.5025052 6.856011,-2.9123602 13.783244,-2.9123602 6.682122,0 8.954523,0.4455394 13.278517,2.603458 2.869216,1.4319019 6.943694,4.2444023 9.054396,6.2500003 2.110702,2.005598 5.148202,6.221209 6.75,9.368025 2.538815,4.987635 2.91236,6.810904 2.91236,14.215204 0,7.917913 -0.194253,8.716404 -2.865421,11.778517 -1.575982,1.806638 -3.788053,5.105023 -4.915714,7.329744 -1.127661,2.224721 -4.103168,5.937221 -6.612236,8.25 l -4.561943,4.205052 z m 0.38938,-4.224911 15.033995,-0.275089 2.288312,-3.397883 c 1.258572,-1.868836 2.288313,-3.714789 2.288313,-4.102117 0,-0.387328 -1.028326,-2.230166 -2.285168,-4.095195 -1.256843,-1.865028 -3.056843,-3.539571 -4,-3.721207 -1.256157,-0.241914 -1.714832,0.348747 -1.714832,2.208282 0,1.412956 -1.374855,4.104401 -3.100743,6.070078 -1.705408,1.942353 -3.505408,3.281454 -4,2.97578 -0.494591,-0.305675 -0.899257,-2.104214 -0.899257,-3.996755 0,-2.774316 0.387486,-3.440983 2,-3.440983 1.333333,0 2,-0.666667 2,-2 0,-1.833333 -0.666667,-2 -8,-2 -7.333333,0 -8,0.166667 -8,2 0,1.333333 0.666667,2 2,2 1.612514,0 2,0.666667 2,3.440983 0,1.892541 -0.404666,3.69108 -0.899257,3.996755 -0.494592,0.305674 -2.294592,-1.033427 -4,-2.97578 -1.705409,-1.942353 -3.100743,-4.640892 -3.100743,-5.996754 0,-1.398373 -0.582062,-2.465204 -1.345012,-2.465204 -0.739757,0 -2.031933,0.7875 -2.871501,1.75 -0.839569,0.9625 -2.050146,2.7625 -2.690172,4 -0.88491,1.710989 -0.88491,2.789011 0,4.5 0.640026,1.2375 1.86082,3.04879 2.712877,4.025089 1.376757,1.577509 3.22258,1.744469 16.583188,1.5 z M 26.083418,40.305085 c 0.810286,0 4.724512,1.000447 6.750932,-0.885135 l 3.775819,-2.011532 3.963552,1.636066 c 2.558592,1.05613 5.752913,1.260601 6.563199,1.260601 0.910961,0 1.473249,-0.969368 1.473249,-2.539838 0,-1.396911 0.935713,-4.373988 2.079363,-6.615726 1.296311,-2.540979 1.851627,-4.983258 1.47462,-6.485373 -0.332608,-1.325217 -2.168322,-4.140181 -4.079363,-6.255475 -1.911041,-2.115294 -3.47462,-4.353949 -3.47462,-4.974789 0,-0.744332 -2.724785,-1.128799 -8,-1.128799 -5.275215,0 -8,0.384467 -8,1.128799 0,0.62084 -1.563579,2.859495 -3.47462,4.974789 -1.911041,2.115294 -3.746755,4.930258 -4.079363,6.255475 -0.377007,1.502115 0.178309,3.944394 1.47462,6.485373 1.14365,2.241738 2.079363,5.218815 2.079363,6.615726 0,1.57047 0.562288,2.539838 1.473249,2.539838 z"
     style="fill:#8f31e7"
     sodipodi:nodetypes="ccsssssssssssssssccscssssssssssssssssssssssssscssssssssssssss" />
  <path
     inkscape:connector-curvature="0"
     id="path3989"
     d="m 36.610169,68.305085 -13.044686,0 -4.561943,-4.205052 c -2.509068,-2.312779 -5.484575,-6.025279 -6.612236,-8.25 C 11.263643,53.625312 9.0515715,50.326927 7.47559,48.520289 4.8041534,45.457868 4.610169,44.660161 4.610169,36.737045 c 0,-7.152549 0.4123095,-9.324625 2.603458,-13.715204 1.4319019,-2.869216 4.244402,-6.943694 6.25,-9.054396 2.005598,-2.110702 6.221209,-5.148202 9.368025,-6.7500001 4.916302,-2.5025052 6.856011,-2.9123602 13.783244,-2.9123602 6.682122,0 8.954523,0.4455394 13.278517,2.603458 2.869216,1.4319019 6.943694,4.2444023 9.054396,6.2500003 2.110702,2.005598 5.148202,6.221209 6.75,9.368025 2.538815,4.987635 2.91236,6.810904 2.91236,14.215204 0,7.917913 -0.194253,8.716404 -2.865421,11.778517 -1.575982,1.806638 -3.788053,5.105023 -4.915714,7.329744 -1.127661,2.224721 -4.103168,5.937221 -6.612236,8.25 l -4.561943,4.205052 -13.044686,0 z m 0.38938,-4.224911 15.033995,-0.275089 2.288312,-3.397883 c 1.258572,-1.868836 2.288313,-3.714789 2.288313,-4.102117 0,-0.387328 -1.028326,-2.230166 -2.285168,-4.095195 -1.256843,-1.865028 -3.056843,-3.539571 -4,-3.721207 -1.256157,-0.241914 -1.714832,0.348747 -1.714832,2.208282 0,1.412956 -1.374855,4.104401 -3.100743,6.070078 -1.705408,1.942353 -3.505408,3.281454 -4,2.97578 -0.494591,-0.305675 -0.899257,-2.104214 -0.899257,-3.996755 0,-2.774316 0.387486,-3.440983 2,-3.440983 1.333333,0 2,-0.666667 2,-2 0,-1.833333 -0.666667,-2 -8,-2 -7.333333,0 -8,0.166667 -8,2 0,1.333333 0.666667,2 2,2 1.612514,0 2,0.666667 2,3.440983 0,1.892541 -0.404666,3.69108 -0.899257,3.996755 -0.494592,0.305674 -2.294592,-1.033427 -4,-2.97578 -1.705409,-1.942353 -3.100743,-4.640892 -3.100743,-5.996754 0,-1.398373 -0.582062,-2.465204 -1.345012,-2.465204 -0.739757,0 -2.031933,0.7875 -2.871501,1.75 -0.839569,0.9625 -2.050146,2.7625 -2.690172,4 -0.88491,1.710989 -0.88491,2.789011 0,4.5 0.640026,1.2375 1.86082,3.04879 2.712877,4.025089 1.376757,1.577509 3.22258,1.744469 16.583188,1.5 z M 18.357427,44.305085 c 0.240506,0 1.581448,-0.9 2.979871,-2 1.398424,-1.1 3.624829,-2 4.947568,-2 1.322738,0 4.187052,-0.909146 6.365141,-2.020324 l 3.960162,-2.020324 3.960162,2.020324 c 2.178089,1.111178 5.042403,2.020324 6.365141,2.020324 1.322739,0 3.604547,0.94358 5.070685,2.096844 2.20466,1.734186 2.931206,1.876498 4.200795,0.822833 0.8443,-0.700706 2.180419,-2.521939 2.969154,-4.047184 0.788734,-1.525245 1.434063,-3.708353 1.434063,-4.85135 0,-1.142997 -1.395769,-4.877844 -3.101709,-8.29966 -1.705939,-3.421816 -4.722266,-7.908983 -6.702947,-9.971483 l -3.60124,-3.75 -10.594104,0 -10.594104,0 -3.60124,3.75 c -1.980681,2.0625 -4.997008,6.549667 -6.702947,9.971483 -1.70594,3.421816 -3.101709,7.1639 -3.101709,8.315742 0,1.151842 0.507825,3.077174 1.128499,4.278516 0.620675,1.201343 1.815419,2.971759 2.654988,3.934259 0.839568,0.9625 1.723266,1.75 1.963771,1.75 z M 29.074229,32.102478 c -1.669767,0.163567 -3.357267,-0.02393 -3.75,-0.416666 -0.392733,-0.392733 -0.71406,-1.523402 -0.71406,-2.512597 0,-0.989196 1.416899,-3.412297 3.148665,-5.384669 1.89612,-2.159561 3.51139,-3.223406 4.060489,-2.674307 0.501503,0.501503 0.772104,3.112104 0.601335,5.801335 -0.294249,4.633771 -0.46928,4.905066 -3.346429,5.186904 z m 16,0 c -1.669767,0.163567 -3.357267,-0.02393 -3.75,-0.416666 -0.392733,-0.392733 -0.71406,-2.862503 -0.71406,-5.488377 0,-2.625874 0.404666,-5.024413 0.899257,-5.330088 0.494592,-0.305674 2.32004,1.06241 4.056551,3.040188 1.917002,2.183344 3.03687,4.440864 2.850743,5.746754 -0.224931,1.578139 -1.114881,2.229978 -3.342491,2.448189 z"
     style="fill:#27077c" />
  <path
     inkscape:connector-curvature="0"
     id="path3987"
     d="m 36.610169,68.305085 -13.044686,0 -4.561943,-4.205052 c -2.509068,-2.312779 -5.484575,-6.025279 -6.612236,-8.25 C 11.263643,53.625312 9.0515715,50.326927 7.47559,48.520289 4.8041534,45.457868 4.610169,44.660161 4.610169,36.737045 c 0,-7.152549 0.4123095,-9.324625 2.603458,-13.715204 1.4319019,-2.869216 4.244402,-6.943694 6.25,-9.054396 2.005598,-2.110702 6.221209,-5.148202 9.368025,-6.7500001 4.916302,-2.5025052 6.856011,-2.9123602 13.783244,-2.9123602 6.682122,0 8.954523,0.4455394 13.278517,2.603458 2.869216,1.4319019 6.943694,4.2444023 9.054396,6.2500003 2.110702,2.005598 5.148202,6.221209 6.75,9.368025 2.538815,4.987635 2.91236,6.810904 2.91236,14.215204 0,7.917913 -0.194253,8.716404 -2.865421,11.778517 -1.575982,1.806638 -3.788053,5.105023 -4.915714,7.329744 -1.127661,2.224721 -4.103168,5.937221 -6.612236,8.25 l -4.561943,4.205052 z m 0.38938,-4.224911 15.033995,-0.275089 2.288312,-3.397883 c 1.258572,-1.868836 2.288313,-3.714789 2.288313,-4.102117 0,-0.387328 -1.028326,-2.230166 -2.285168,-4.095195 -1.256843,-1.865028 -3.056843,-3.539571 -4,-3.721207 -1.256157,-0.241914 -1.714832,0.348747 -1.714832,2.208282 0,1.412956 -1.374855,4.104401 -3.100743,6.070078 -1.705408,1.942353 -3.505408,3.281454 -4,2.97578 -0.494591,-0.305675 -0.899257,-2.104214 -0.899257,-3.996755 0,-2.774316 0.387486,-3.440983 2,-3.440983 1.333333,0 2,-0.666667 2,-2 0,-1.833333 -0.666667,-2 -8,-2 -7.333333,0 -8,0.166667 -8,2 0,1.333333 0.666667,2 2,2 1.612514,0 2.666515,0.74792 2,3.440983 -0.375466,1.517075 -0.429072,3.5867 -0.923663,3.892375 -0.494592,0.305674 -2.270186,-0.929047 -3.975594,-2.8714 -1.705409,-1.942353 -3.100743,-4.640892 -3.100743,-5.996754 0,-1.398373 -0.582062,-2.465204 -1.345012,-2.465204 -0.739757,0 -2.031933,0.7875 -2.871501,1.75 -0.839569,0.9625 -2.050146,2.7625 -2.690172,4 -0.88491,1.710989 -0.88491,2.789011 0,4.5 0.640026,1.2375 1.86082,3.04879 2.712877,4.025089 1.376757,1.577509 3.22258,1.744469 16.583188,1.5 z M 14.562209,52.305085 c 0.353135,0 2.399717,-1.8 4.54796,-4 l 3.905896,-4 13.5092,0 13.509201,0 4.240504,4.16174 c 3.67455,3.606298 4.455819,3.983044 5.853788,2.822833 0.887306,-0.736399 2.258613,-2.586835 3.047348,-4.11208 0.896156,-1.732975 1.434063,-5.785442 1.434063,-10.803899 0,-7.034857 -0.403024,-8.85216 -3.25,-14.654794 C 58.319446,15.521362 57.677123,14.876212 51.385133,11.699951 45.399265,8.6782239 43.775307,8.3050847 36.610169,8.3050847 c -7.165138,0 -8.789096,0.3731392 -14.774964,3.3948663 -6.29199,3.176261 -6.934313,3.821411 -9.975036,10.018934 -2.8486141,5.805973 -3.25,7.617875 -3.25,14.670875 0,4.425744 0.5078246,9.029724 1.128499,10.231066 0.620675,1.201343 1.815419,2.971759 2.654988,3.934259 0.839568,0.9625 1.815417,1.75 2.168553,1.75 z"
     style="fill:#272627"
     sodipodi:nodetypes="ccsssssssssssssssccscssssssssssssssssssssssssscccsssssssssssss" />
</svg>
